<svg width="1246" height="172" viewBox="0 0 1246 172" fill="none" xmlns="http://www.w3.org/2000/svg">
<path d="M85.6 50.4L0.799998 41.4H87C86.3333 44.0667 85.8667 47.0667 85.6 50.4ZM92.4 22.2L89.4 31L6.4 22.2H92.4ZM85.6 60.6C85.8667 64.2 86.4 67.2 87.2 69.6L2.6 60.6H85.6ZM113.6 88.8L7.8 79.8H94C98.4 84.0667 104.933 87.0667 113.6 88.8ZM107.4 3C104.333 5 101.4 7.73333 98.6 11.2L21.4 3H107.4ZM4.4 99H79.2L76.2 107.8L4.4 99ZM0.999999 118.4H72.8L69.8 127.2L0.999999 118.4ZM87.8 92.8C99 95.8667 109.2 97.4 118.4 97.4C127.733 97.4 135.333 97 141.2 96.2L142.8 86.2L126.2 84.6C113.533 83.4 104.533 80.5333 99.2 76C94 71.4667 91.4 65.0667 91.4 56.8C91.4 53.2 91.8 49.2 92.6 44.8C95.6667 27.7333 101.267 16 109.4 9.6C117.533 3.19999 130 -9.05991e-06 146.8 -9.05991e-06C163.733 -9.05991e-06 178.667 1.66666 191.6 5L181.2 37C169.6 35 160.267 34 153.2 34C146.267 34 140.267 34.3333 135.2 35L133.6 44.8L147 46.2C160.6 47.6667 170.267 50.9333 176 56C181.733 60.9333 184.6 67.6 184.6 76C184.6 84.5333 182.8 93.3333 179.2 102.4C177.2 107.067 175.067 111 172.8 114.2C170.667 117.267 167.867 119.933 164.4 122.2C161.067 124.333 158 126 155.2 127.2C152.4 128.267 148.8 129.067 144.4 129.6C138.267 130.533 130.667 131 121.6 131C105.067 131 90.0667 129.267 76.6 125.8L87.8 92.8Z" fill="#FC077D"/>
<path d="M228.97 130.1C217.37 130.1 209.02 127.5 203.92 122.3C200.12 118.5 198.22 113.4 198.22 107C198.22 104.9 198.42 102.65 198.82 100.25L209.02 42.2L236.47 30.8L232.12 55.85H273.52L269.77 77H228.37L225.37 93.95C224.97 95.85 224.77 97.55 224.77 99.05C224.77 105.35 227.77 108.5 233.77 108.5C236.97 108.5 239.62 107.15 241.72 104.45C243.92 101.75 245.42 98.15 246.22 93.65H271.12C266.92 117.95 252.87 130.1 228.97 130.1ZM324.045 53.75C334.845 53.75 342.995 56.1 348.495 60.8C352.795 64.5 354.945 69.65 354.945 76.25C354.945 78.45 354.695 80.85 354.195 83.45L351.045 101C349.145 111.6 344.695 119.1 337.695 123.5C330.795 127.9 321.545 130.1 309.945 130.1C298.345 130.1 289.845 127.9 284.445 123.5C280.445 120.2 278.445 115.25 278.445 108.65C278.445 106.35 278.695 103.8 279.195 101L282.345 83.45C285.845 63.65 299.745 53.75 324.045 53.75ZM328.095 86.45C328.295 85.45 328.395 84.2 328.395 82.7C328.395 81.1 327.745 79.35 326.445 77.45C325.145 75.55 322.845 74.6 319.545 74.6C316.345 74.6 313.645 75.7 311.445 77.9C309.245 80 307.845 82.85 307.245 86.45L305.295 97.7C305.095 98.7 304.995 100 304.995 101.6C304.995 103.1 305.645 104.75 306.945 106.55C308.245 108.35 310.495 109.25 313.695 109.25C316.995 109.25 319.745 108.15 321.945 105.95C324.145 103.65 325.545 100.9 326.145 97.7L328.095 86.45ZM436.613 71.15C436.613 74.55 436.013 77.85 434.813 81.05C433.713 84.25 432.613 86.6 431.513 88.1L429.863 90.2H407.213C409.713 87.9 410.963 85.05 410.963 81.65C410.963 79.85 410.363 78.4 409.163 77.3C408.063 76.1 406.513 75.5 404.513 75.5C401.113 75.5 398.163 77.2 395.663 80.6L387.263 128H361.763L374.513 55.85H398.213L396.413 65.9C402.113 57.8 409.013 53.75 417.113 53.75C423.613 53.75 428.463 55.3 431.663 58.4C434.963 61.5 436.613 65.75 436.613 71.15ZM469.563 95.75C469.263 97.55 469.113 99.35 469.113 101.15C469.113 105.95 471.813 108.35 477.213 108.35C481.613 108.35 485.263 106.8 488.163 103.7L496.563 55.85H522.063L508.863 130.4C506.663 143.1 501.613 153.15 493.713 160.55C485.913 167.95 476.963 171.65 466.863 171.65C456.763 171.65 449.463 169.8 444.963 166.1C440.563 162.4 438.363 157.55 438.363 151.55C438.363 143.05 443.613 135.5 454.113 128.9C448.413 127.5 444.813 124.65 443.313 120.35C442.413 117.95 441.963 115.25 441.963 112.25C441.963 109.25 442.213 106.2 442.713 103.1L451.113 55.85H476.613L469.563 95.75ZM470.313 150.2C476.813 150.2 481.063 144.3 483.063 132.5L484.563 123.8C470.663 130.3 463.713 136.85 463.713 143.45C463.713 145.45 464.263 147.05 465.363 148.25C466.563 149.55 468.213 150.2 470.313 150.2ZM790.201 130.1C778.601 130.1 770.251 127.5 765.151 122.3C761.351 118.5 759.451 113.4 759.451 107C759.451 104.9 759.651 102.65 760.051 100.25L770.251 42.2L797.701 30.8L793.351 55.85H834.751L831.001 77H789.601L786.601 93.95C786.201 95.85 786.001 97.55 786.001 99.05C786.001 105.35 789.001 108.5 795.001 108.5C798.201 108.5 800.851 107.15 802.951 104.45C805.151 101.75 806.651 98.15 807.451 93.65H832.351C828.151 117.95 814.101 130.1 790.201 130.1ZM910.775 104.9C910.775 107.5 912.075 108.8 914.675 108.8C917.375 108.8 919.625 108.3 921.425 107.3L920.675 124.25C915.875 128.15 910.475 130.1 904.475 130.1C893.475 130.1 887.375 126.1 886.175 118.1C881.175 126.1 873.825 130.1 864.125 130.1C847.725 130.1 839.525 123.05 839.525 108.95C839.525 106.55 839.775 103.9 840.275 101L843.425 83.45C845.025 74.45 848.675 67.3 854.375 62C860.175 56.6 867.675 53.9 876.875 53.9C886.175 53.9 892.475 56.05 895.775 60.35L896.525 55.85H919.325L910.925 103.1C910.825 103.7 910.775 104.3 910.775 104.9ZM866.375 97.7C866.175 98.6 866.075 99.85 866.075 101.45C866.075 103.05 866.825 104.65 868.325 106.25C869.825 107.75 872.325 108.5 875.825 108.5C879.425 108.5 882.525 107.1 885.125 104.3L889.625 79.1C888.525 76.6 885.925 75.35 881.825 75.35C874.125 75.35 869.625 79.05 868.325 86.45L866.375 97.7ZM1003.41 71.15C1003.41 74.55 1002.81 77.85 1001.61 81.05C1000.51 84.25 999.409 86.6 998.309 88.1L996.659 90.2H974.009C976.509 87.9 977.759 85.05 977.759 81.65C977.759 79.85 977.159 78.4 975.959 77.3C974.859 76.1 973.309 75.5 971.309 75.5C967.909 75.5 964.959 77.2 962.459 80.6L954.059 128H928.559L941.309 55.85H965.009L963.209 65.9C968.909 57.8 975.809 53.75 983.909 53.75C990.409 53.75 995.259 55.3 998.459 58.4C1001.76 61.5 1003.41 65.75 1003.41 71.15ZM1039.81 130.1C1028.21 130.1 1019.86 127.5 1014.76 122.3C1010.96 118.5 1009.06 113.4 1009.06 107C1009.06 104.9 1009.26 102.65 1009.66 100.25L1019.86 42.2L1047.31 30.8L1042.96 55.85H1084.36L1080.61 77H1039.21L1036.21 93.95C1035.81 95.85 1035.61 97.55 1035.61 99.05C1035.61 105.35 1038.61 108.5 1044.61 108.5C1047.81 108.5 1050.46 107.15 1052.56 104.45C1054.76 101.75 1056.26 98.15 1057.06 93.65H1081.96C1077.76 117.95 1063.71 130.1 1039.81 130.1ZM1120.33 130.1C1099.53 130.1 1089.13 122.9 1089.13 108.5C1089.13 106.5 1089.33 104.35 1089.73 102.05L1092.88 83.45C1094.58 73.85 1098.98 66.5 1106.08 61.4C1113.28 56.2 1122.78 53.6 1134.58 53.6C1154.68 53.6 1164.73 61.2 1164.73 76.4C1164.73 78.6 1164.53 81 1164.13 83.6L1162.33 94.25H1116.58L1115.98 97.7C1115.78 98.9 1115.68 100 1115.68 101C1115.68 106.5 1118.93 109.25 1125.43 109.25C1127.83 109.25 1129.88 108.5 1131.58 107C1133.28 105.5 1134.28 103.75 1134.58 101.75L1159.48 102.05C1156.18 120.75 1143.13 130.1 1120.33 130.1ZM1138.33 85.1C1138.73 83.4 1138.93 81.85 1138.93 80.45C1138.93 78.95 1138.28 77.45 1136.98 75.95C1135.68 74.45 1133.58 73.7 1130.68 73.7C1127.88 73.7 1125.28 74.65 1122.88 76.55C1120.58 78.45 1118.98 81.3 1118.08 85.1H1138.33ZM1245.55 71.15C1245.55 74.55 1244.95 77.85 1243.75 81.05C1242.65 84.25 1241.55 86.6 1240.45 88.1L1238.8 90.2H1216.15C1218.65 87.9 1219.9 85.05 1219.9 81.65C1219.9 79.85 1219.3 78.4 1218.1 77.3C1217 76.1 1215.45 75.5 1213.45 75.5C1210.05 75.5 1207.1 77.2 1204.6 80.6L1196.2 128H1170.7L1183.45 55.85H1207.15L1205.35 65.9C1211.05 57.8 1217.95 53.75 1226.05 53.75C1232.55 53.75 1237.4 55.3 1240.6 58.4C1243.9 61.5 1245.55 65.75 1245.55 71.15Z" fill="black"/>
<path d="M646.83 50.4L562.03 41.4H648.23C647.564 44.0667 647.097 47.0667 646.83 50.4ZM653.63 22.2L650.63 31L567.63 22.2H653.63ZM646.83 60.6C647.097 64.2 647.63 67.2 648.43 69.6L563.83 60.6H646.83ZM674.83 88.8L569.03 79.8H655.23C659.63 84.0667 666.164 87.0667 674.83 88.8ZM668.63 3C665.564 5 662.63 7.73333 659.83 11.2L582.63 3H668.63ZM565.63 99H640.43L637.43 107.8L565.63 99ZM562.23 118.4H634.03L631.03 127.2L562.23 118.4ZM649.03 92.8C660.23 95.8667 670.43 97.4 679.63 97.4C688.964 97.4 696.564 97 702.43 96.2L704.03 86.2L687.43 84.6C674.764 83.4 665.764 80.5333 660.43 76C655.23 71.4667 652.63 65.0667 652.63 56.8C652.63 53.2 653.03 49.2 653.83 44.8C656.897 27.7333 662.497 16 670.63 9.6C678.764 3.19999 691.23 -9.05991e-06 708.03 -9.05991e-06C724.964 -9.05991e-06 739.897 1.66666 752.83 5L742.43 37C730.83 35 721.497 34 714.43 34C707.497 34 701.497 34.3333 696.43 35L694.83 44.8L708.23 46.2C721.83 47.6667 731.497 50.9333 737.23 56C742.964 60.9333 745.83 67.6 745.83 76C745.83 84.5333 744.03 93.3333 740.43 102.4C738.43 107.067 736.297 111 734.03 114.2C731.897 117.267 729.097 119.933 725.63 122.2C722.297 124.333 719.23 126 716.43 127.2C713.63 128.267 710.03 129.067 705.63 129.6C699.497 130.533 691.897 131 682.83 131C666.297 131 651.297 129.267 637.83 125.8L649.03 92.8Z" fill="#FC077D"/>
</svg>
