<?xml version="1.0" encoding="UTF-8"?>
<!DOCTYPE svg PUBLIC "-//W3C//DTD SVG 1.1//EN" "http://www.w3.org/Graphics/SVG/1.1/DTD/svg11.dtd">
<!-- Creator: CorelDRAW 2020 (64-Bit) -->
<svg xmlns="http://www.w3.org/2000/svg" xml:space="preserve" width="210mm" height="297mm" version="1.1" style="shape-rendering:geometricPrecision; text-rendering:geometricPrecision; image-rendering:optimizeQuality; fill-rule:evenodd; clip-rule:evenodd"
viewBox="0 0 21000 29700"
 xmlns:xlink="http://www.w3.org/1999/xlink"
 xmlns:xodm="http://www.corel.com/coreldraw/odm/2003">
 <defs>
  <style type="text/css">
   <![CDATA[
    .fil1 {fill:black;fill-rule:nonzero}
    .fil0 {fill:#FC077D;fill-rule:nonzero}
   ]]>
  </style>
 </defs>
 <g id="Capa_x0020_1">
  <metadata id="CorelCorpID_0Corel-Layer"/>
  <g id="_2156444972368">
   <g>
    <path class="fil0" d="M3659.94 12135.45l-1833.62 -194.6 1863.89 0c-14.42,57.65 -24.5,122.53 -30.27,194.6zm147.03 -609.76l-64.87 190.28 -1794.69 -190.28 1859.56 0zm-147.03 830.32c5.77,77.84 17.3,142.7 34.59,194.6l-1829.28 -194.6 1794.69 0zm605.43 609.75l-2287.69 -194.6 1863.89 0c95.14,92.26 236.4,157.13 423.8,194.6zm-134.06 -1855.23c-66.31,43.24 -129.74,102.35 -190.28,177.31l-1669.27 -177.31 1859.55 0zm-2227.15 2075.79l1617.39 0 -64.87 190.28 -1552.52 -190.28zm-73.51 419.48l1552.51 0 -64.86 190.28 -1487.65 -190.28zm1876.86 -553.54c242.17,66.31 462.73,99.47 661.65,99.47 201.81,0 366.14,-8.66 493,-25.95l34.6 -216.23 -358.94 -34.6c-273.9,-25.95 -468.5,-87.93 -583.82,-185.95 -112.43,-98.03 -168.65,-236.41 -168.65,-415.16 0,-77.84 8.65,-164.34 25.95,-259.47 66.31,-369.04 187.4,-622.74 363.26,-761.13 175.86,-138.38 445.43,-207.58 808.69,-207.58 366.14,0 689.06,36.04 968.7,108.11l-224.87 691.93c-250.83,-43.24 -452.63,-64.86 -605.45,-64.86 -149.9,0 -279.64,7.21 -389.21,21.62l-34.59 211.91 289.74 30.27c294.08,31.71 503.1,102.34 627.06,211.9 123.97,106.67 185.97,250.83 185.97,432.46 0,184.51 -38.93,374.79 -116.77,570.84 -43.25,100.91 -89.37,185.95 -138.38,255.15 -46.13,66.31 -106.67,123.96 -181.64,172.98 -72.07,46.12 -138.39,82.16 -198.93,108.11 -60.54,23.07 -138.38,40.37 -233.52,51.89 -132.62,20.18 -296.95,30.28 -493,30.28 -357.49,0 -681.84,-37.48 -973.03,-112.44l242.18 -713.55z"/>
    <path class="fil1" d="M6759.99 13858.79c-250.81,0 -431.37,-56.22 -541.65,-168.66 -82.16,-82.16 -123.24,-192.44 -123.24,-330.82 0,-45.42 4.32,-94.07 12.97,-145.96l220.55 -1255.21 593.55 -246.5 -94.06 541.65 895.18 0 -81.09 457.32 -895.18 0 -64.87 366.51c-8.64,41.08 -12.97,77.84 -12.97,110.28 0,136.22 64.87,204.33 194.6,204.33 69.2,0 126.5,-29.19 171.91,-87.56 47.56,-58.39 80,-136.23 97.3,-233.53l538.41 0c-90.82,525.43 -394.62,788.15 -911.41,788.15zm2055.79 -1650.9c233.53,0 409.75,50.81 528.69,152.44 92.97,80.01 139.46,191.36 139.46,334.07 0,47.57 -5.4,99.47 -16.22,155.68l-68.11 379.49c-41.09,229.19 -137.31,391.37 -288.66,486.51 -149.2,95.13 -349.22,142.71 -600.03,142.71 -250.83,0 -434.63,-47.58 -551.39,-142.71 -86.49,-71.35 -129.73,-178.39 -129.73,-321.1 0,-49.73 5.4,-104.87 16.21,-165.41l68.12 -379.49c75.67,-428.12 376.23,-642.19 901.66,-642.19zm87.58 707.07c4.32,-21.63 6.48,-48.66 6.48,-81.09 0,-34.6 -14.06,-72.44 -42.16,-113.52 -28.11,-41.09 -77.84,-61.63 -149.2,-61.63 -69.19,0 -127.58,23.79 -175.15,71.36 -47.56,45.41 -77.84,107.03 -90.81,184.88l-42.16 243.25c-4.33,21.62 -6.49,49.73 -6.49,84.33 0,32.43 14.06,68.11 42.16,107.03 28.12,38.92 76.77,58.39 145.96,58.39 71.36,0 130.82,-23.79 178.39,-71.37 47.56,-49.72 77.84,-109.19 90.81,-178.38l42.17 -243.25zm2346.46 -330.84c0,73.52 -12.97,144.87 -38.92,214.07 -23.79,69.19 -47.57,120 -71.36,152.44l-35.67 45.41 -489.76 0c54.05,-49.73 81.08,-111.36 81.08,-184.87 0,-38.93 -12.97,-70.28 -38.92,-94.07 -23.78,-25.95 -57.3,-38.91 -100.54,-38.91 -73.52,0 -137.31,36.75 -191.37,110.27l-181.63 1024.92 -551.38 0 275.69 -1560.09 512.46 0 -38.91 217.32c123.24,-175.15 272.44,-262.72 447.58,-262.72 140.55,0 245.43,33.51 314.61,100.54 71.36,67.03 107.04,158.93 107.04,275.69zm712.47 531.93c-6.48,38.91 -9.73,77.84 -9.73,116.75 0,103.79 58.38,155.69 175.14,155.69 95.15,0 174.07,-33.52 236.78,-100.55l181.63 -1034.65 551.38 0 -285.42 1611.98c-47.57,274.61 -156.77,491.93 -327.59,651.93 -168.66,160.01 -362.19,240.02 -580.57,240.02 -218.39,0 -376.24,-40.01 -473.54,-120.01 -95.14,-80 -142.71,-184.88 -142.71,-314.62 0,-183.79 113.52,-347.04 340.56,-489.75 -123.25,-30.27 -201.09,-91.9 -233.53,-184.88 -19.46,-51.89 -29.19,-110.27 -29.19,-175.14 0,-64.86 5.41,-130.82 16.22,-197.85l181.63 -1021.68 551.38 0 -152.44 862.76zm16.22 1177.36c140.55,0 232.44,-127.58 275.69,-382.73l32.43 -188.11c-300.55,140.54 -450.84,282.17 -450.84,424.88 0,43.25 11.9,77.84 35.69,103.79 25.94,28.11 61.62,42.17 107.03,42.17z"/>
   </g>
   <g>
    <path class="fil1" d="M9655.94 17077.34c-250.83,0 -431.37,-56.21 -541.65,-168.65 -82.17,-82.16 -123.25,-192.44 -123.25,-330.83 0,-45.41 4.32,-94.06 12.97,-145.96l220.56 -1255.2 593.54 -246.5 -94.06 541.65 895.19 0 -81.09 457.32 -895.19 0 -64.86 366.51c-8.65,41.08 -12.98,77.84 -12.98,110.28 0,136.22 64.87,204.33 194.61,204.33 69.19,0 126.49,-29.19 171.9,-87.57 47.57,-58.38 80,-136.22 97.31,-233.52l538.4 0c-90.82,525.43 -394.62,788.14 -911.4,788.14zm2607.15 -544.89c0,56.22 28.1,84.33 84.32,84.33 58.38,0 107.04,-10.81 145.96,-32.44l-16.22 366.51c-103.79,84.33 -220.55,126.49 -350.29,126.49 -237.85,0 -369.75,-86.48 -395.7,-259.47 -108.11,172.99 -267.04,259.47 -476.77,259.47 -354.62,0 -531.93,-152.44 -531.93,-457.31 0,-51.9 5.41,-109.2 16.22,-171.9l68.11 -379.49c34.6,-194.6 113.52,-349.2 236.77,-463.81 125.42,-116.76 287.58,-175.14 486.51,-175.14 201.09,0 337.32,46.49 408.67,139.46l16.22 -97.3 493 0 -181.63 1021.68c-2.16,12.97 -3.24,25.95 -3.24,38.92zm-960.05 -155.68c-4.33,19.45 -6.49,46.49 -6.49,81.08 0,34.6 16.21,69.2 48.65,103.79 32.43,32.44 86.49,48.65 162.17,48.65 77.84,0 144.87,-30.27 201.09,-90.81l97.3 -544.89c-23.78,-54.06 -80,-81.09 -168.65,-81.09 -166.5,0 -263.8,80 -291.91,240.01l-42.16 243.26zm2963.07 -574.09c0,73.52 -12.97,144.87 -38.92,214.07 -23.78,69.19 -47.59,120 -71.38,152.44l-35.68 45.41 -489.75 0c54.06,-49.74 81.09,-111.36 81.09,-184.88 0,-38.92 -12.97,-70.27 -38.92,-94.06 -23.79,-25.95 -57.31,-38.92 -100.55,-38.92 -73.52,0 -137.3,36.76 -191.36,110.27l-181.63 1024.93 -551.39 0 275.7 -1560.09 512.46 0 -38.93 217.31c123.26,-175.15 272.45,-262.71 447.6,-262.71 140.55,0 245.41,33.51 314.61,100.54 71.38,67.03 107.05,158.93 107.05,275.69zm787.07 1274.66c-250.82,0 -431.38,-56.21 -541.65,-168.65 -82.16,-82.16 -123.25,-192.44 -123.25,-330.83 0,-45.41 4.33,-94.06 12.98,-145.96l220.54 -1255.2 593.56 -246.5 -94.07 541.65 895.19 0 -81.09 457.32 -895.18 0 -64.87 366.51c-8.65,41.08 -12.98,77.84 -12.98,110.28 0,136.22 64.88,204.33 194.61,204.33 69.19,0 126.5,-29.19 171.9,-87.57 47.57,-58.38 80.01,-136.22 97.3,-233.52l538.42 0c-90.82,525.43 -394.62,788.14 -911.41,788.14zm1741.07 0c-449.75,0 -674.63,-155.68 -674.63,-467.05 0,-43.24 4.32,-89.73 12.97,-139.46l68.11 -402.19c36.76,-207.58 131.91,-366.51 285.42,-476.78 155.69,-112.44 361.11,-168.66 616.25,-168.66 434.63,0 651.93,164.33 651.93,493 0,47.57 -4.32,99.47 -12.97,155.69l-38.92 230.28 -989.25 0 -12.97 74.6c-4.32,25.94 -6.49,49.73 -6.49,71.36 0,118.92 70.28,178.38 210.83,178.38 51.89,0 96.22,-16.22 132.98,-48.65 36.76,-32.43 58.38,-70.27 64.86,-113.52l538.42 6.49c-71.37,404.35 -353.54,606.51 -846.54,606.51zm389.21 -973.02c8.65,-36.76 12.98,-70.27 12.98,-100.54 0,-32.44 -14.06,-64.87 -42.17,-97.31 -28.11,-32.43 -73.51,-48.65 -136.22,-48.65 -60.55,0 -116.77,20.54 -168.66,61.63 -49.73,41.08 -84.33,102.71 -103.79,184.87l437.86 0zm2318.4 -301.64c0,73.52 -12.98,144.87 -38.93,214.07 -23.78,69.19 -47.57,120 -71.35,152.44l-35.68 45.41 -489.75 0c54.06,-49.74 81.08,-111.36 81.08,-184.88 0,-38.92 -12.98,-70.27 -38.92,-94.06 -23.78,-25.95 -57.3,-38.92 -100.55,-38.92 -73.52,0 -137.3,36.76 -191.35,110.27l-181.64 1024.93 -551.38 0 275.69 -1560.09 512.46 0 -38.92 217.31c123.25,-175.15 272.45,-262.71 447.59,-262.71 140.55,0 245.42,33.51 314.62,100.54 71.35,67.03 107.03,158.93 107.03,275.69z"/>
    <path class="fil0" d="M6555.86 15354.01l-1833.61 -194.6 1863.88 0c-14.4,57.65 -24.5,122.52 -30.27,194.6zm147.03 -609.76l-64.87 190.28 -1794.69 -190.28 1859.56 0zm-147.03 830.31c5.77,77.85 17.3,142.71 34.6,194.6l-1829.29 -194.6 1794.69 0zm605.44 609.76l-2287.7 -194.6 1863.89 0c95.14,92.26 236.43,157.12 423.81,194.6zm-134.07 -1855.23c-66.29,43.24 -129.73,102.34 -190.28,177.31l-1669.27 -177.31 1859.55 0zm-2227.14 2075.79l1617.38 0 -64.87 190.28 -1552.51 -190.28zm-73.52 419.48l1552.52 0 -64.87 190.28 -1487.65 -190.28zm1876.86 -553.54c242.17,66.31 462.73,99.46 661.66,99.46 201.82,0 366.16,-8.65 493,-25.94l34.59 -216.24 -358.94 -34.59c-273.87,-25.95 -468.48,-87.93 -583.81,-185.95 -112.44,-98.03 -168.66,-236.42 -168.66,-415.16 0,-77.84 8.65,-164.34 25.95,-259.48 66.32,-369.03 187.4,-622.73 363.26,-761.12 175.88,-138.39 445.43,-207.58 808.69,-207.58 366.17,0 689.06,36.04 968.71,108.11l-224.88 691.93c-250.83,-43.25 -452.63,-64.86 -605.44,-64.86 -149.91,0 -279.65,7.21 -389.21,21.61l-34.6 211.91 289.74 30.28c294.08,31.7 503.11,102.34 627.07,211.9 123.99,106.67 185.96,250.82 185.96,432.46 0,184.5 -38.93,374.79 -116.77,570.84 -43.24,100.91 -89.37,185.95 -138.38,255.15 -46.13,66.31 -106.67,123.96 -181.63,172.97 -72.08,46.13 -138.39,82.17 -198.94,108.12 -60.54,23.07 -138.38,40.37 -233.52,51.89 -132.62,20.18 -296.95,30.28 -493,30.28 -357.49,0 -681.83,-37.48 -973.02,-112.44l242.17 -713.55z"/>
   </g>
  </g>
 </g>
</svg>
