<?xml version="1.0" encoding="UTF-8"?>
<!DOCTYPE svg PUBLIC "-//W3C//DTD SVG 1.1//EN" "http://www.w3.org/Graphics/SVG/1.1/DTD/svg11.dtd">
<!-- Creator: CorelDRAW 2020 (64-Bit) -->
<svg xmlns="http://www.w3.org/2000/svg" xml:space="preserve" width="210mm" height="297mm" version="1.1" style="shape-rendering:geometricPrecision; text-rendering:geometricPrecision; image-rendering:optimizeQuality; fill-rule:evenodd; clip-rule:evenodd"
viewBox="0 0 21000 29700"
 xmlns:xlink="http://www.w3.org/1999/xlink"
 xmlns:xodm="http://www.corel.com/coreldraw/odm/2003">
 <defs>
  <style type="text/css">
   <![CDATA[
    .fil0 {fill:#FC077D;fill-rule:nonzero}
   ]]>
  </style>
 </defs>
 <g id="Capa_x0020_1">
  <metadata id="CorelCorpID_0Corel-Layer"/>
  <g id="_1327443007712">
   <path class="fil0" d="M8115.12 12704.89l-4322.96 -458.81 4394.32 0c-33.99,135.94 -57.77,288.88 -71.36,458.81zm346.65 -1437.58l-152.94 448.6 -4231.18 -448.6 4384.12 0zm-346.65 1957.56c13.59,183.52 40.78,336.44 81.55,458.79l-4312.74 -458.79 4231.19 0zm1427.37 1437.58l-5393.48 -458.81 4394.32 0c224.32,217.52 557.34,370.44 999.16,458.81zm-316.05 -4373.93c-156.33,101.94 -305.87,241.29 -448.6,418.03l-3935.51 -418.03 4384.11 0zm-5250.76 4893.91l3813.18 0 -152.94 448.6 -3660.24 -448.6zm-173.31 988.97l3660.22 0 -152.93 448.61 -3507.29 -448.61zm4424.9 -1305.04c570.94,156.35 1090.94,234.51 1559.92,234.51 475.79,0 863.22,-20.4 1162.3,-61.18l81.58 -509.79 -846.23 -81.55c-645.75,-61.19 -1104.55,-207.32 -1376.43,-438.42 -265.08,-231.11 -397.62,-557.37 -397.62,-978.78 0,-183.52 20.38,-387.45 61.18,-611.74 156.33,-870.03 441.81,-1468.17 856.43,-1794.44 414.61,-326.25 1050.14,-489.39 1906.58,-489.39 863.21,0 1624.53,84.97 2283.81,254.88l-530.16 1631.32c-591.35,-101.97 -1067.11,-152.93 -1427.4,-152.93 -353.42,0 -659.28,16.99 -917.6,50.96l-81.56 499.6 683.1 71.37c693.32,74.76 1186.11,241.28 1478.36,499.58 65.14,56.07 123.01,116.53 173.64,181.38 -139.65,66.12 -271.64,145.48 -392.43,240.53 -577.94,454.76 -830.24,1264.05 -955.49,1959.26 -39.07,216.89 -65.46,439.13 -65.46,659.75 0,216.28 30.91,424.5 100.69,616.05 -129.53,40.94 -286.81,72.61 -471.85,95.02 -312.65,47.57 -700.08,71.38 -1162.3,71.38 -842.81,0 -1607.52,-88.36 -2294.01,-265.1l570.95 -1682.27z"/>
   <path class="fil0" d="M11571.08 17866.49c570.95,156.33 1090.93,234.5 1559.94,234.5 475.82,0 863.25,-20.4 1162.3,-61.17l81.56 -509.79 -846.24 -81.57c-645.69,-61.17 -1104.5,-207.31 -1376.41,-438.4 -265.1,-231.11 -397.63,-557.37 -397.63,-978.78 0,-183.52 20.39,-387.45 61.17,-611.74 156.35,-870.03 441.82,-1468.17 856.44,-1794.45 414.65,-326.25 1050.15,-489.38 1906.58,-489.38 863.27,0 1624.52,84.97 2283.83,254.88l-530.18 1631.3c-591.35,-101.95 -1067.12,-152.92 -1427.38,-152.92 -353.44,0 -659.31,17 -917.61,50.97l-81.57 499.6 683.09 71.36c693.32,74.77 1186.12,241.29 1478.39,499.59 292.3,251.49 438.41,591.35 438.41,1019.57 0,435 -91.77,883.62 -275.29,1345.82 -101.94,237.91 -210.69,438.41 -326.26,601.54 -108.75,156.35 -251.47,292.25 -428.21,407.82 -169.92,108.74 -326.26,193.71 -469.01,254.88 -142.74,54.4 -326.26,95.19 -550.56,122.35 -312.65,47.58 -700.08,71.39 -1162.31,71.39 -842.81,0 -1607.49,-88.36 -2294,-265.1l570.95 -1682.27z"/>
  </g>
 </g>
</svg>
