<?xml version="1.0" encoding="UTF-8"?>
<!DOCTYPE svg PUBLIC "-//W3C//DTD SVG 1.1//EN" "http://www.w3.org/Graphics/SVG/1.1/DTD/svg11.dtd">
<!-- Creator: CorelDRAW 2020 (64-Bit) -->
<svg xmlns="http://www.w3.org/2000/svg" xml:space="preserve" width="161.848mm" height="161.848mm" version="1.1" style="shape-rendering:geometricPrecision; text-rendering:geometricPrecision; image-rendering:optimizeQuality; fill-rule:evenodd; clip-rule:evenodd"
viewBox="0 0 16184.8 16184.8"
 xmlns:xlink="http://www.w3.org/1999/xlink"
 xmlns:xodm="http://www.corel.com/coreldraw/odm/2003">
 <defs>
  <style type="text/css">
   <![CDATA[
    .fil0 {fill:#FC077D}
    .fil1 {fill:white;fill-rule:nonzero}
   ]]>
  </style>
 </defs>
 <g id="Capa_x0020_1">
  <metadata id="CorelCorpID_0Corel-Layer"/>
  <rect class="fil0" x="-1.74" y="1.72" width="16184.82" height="16184.82" rx="2541.01" ry="2541.01"/>
  <g id="_2631726577696">
   <path class="fil1" d="M5410.38 5344.1l-5237.49 -555.86 5323.95 0c-41.18,164.69 -69.99,349.99 -86.46,555.86zm420 -1741.7l-185.3 543.5 -5126.31 -543.5 5311.61 0zm-420 2371.69c16.47,222.35 49.42,407.62 98.81,555.85l-5225.12 -555.85 5126.31 0zm1729.34 1741.7l-6534.49 -555.86 5323.96 0c271.77,263.53 675.25,448.8 1210.53,555.86zm-382.91 -5299.24c-189.41,123.51 -370.58,292.34 -543.5,506.47l-4768.08 -506.47 5311.58 0zm-6361.58 5929.23l4619.87 0 -185.29 543.5 -4434.58 -543.5zm-209.97 1198.19l4434.55 0 -185.28 543.51 -4249.27 -543.51zm5361 -1581.12c691.73,189.42 1321.73,284.12 1889.93,284.12 576.45,0 1045.84,-24.72 1408.19,-74.12l98.83 -617.64 -1025.25 -98.81c-782.36,-74.12 -1338.22,-251.18 -1667.62,-531.17 -321.15,-279.99 -481.74,-675.27 -481.74,-1185.83 0,-222.35 24.7,-469.42 74.13,-741.16 189.4,-1054.09 535.28,-1778.77 1037.61,-2174.06 502.32,-395.28 1272.3,-592.93 2309.92,-592.93 1045.83,0 1968.21,102.95 2766.97,308.81l-642.33 1976.42c-716.44,-123.53 -1292.86,-185.28 -1729.36,-185.28 -428.2,0 -798.76,20.59 -1111.73,61.75l-98.81 605.29 827.61 86.47c839.99,90.57 1437.04,292.32 1791.11,605.26 78.93,67.93 149.04,141.19 210.38,219.75 -169.2,80.11 -329.11,176.27 -475.46,291.42 -700.2,550.96 -1005.88,1531.47 -1157.62,2373.75 -47.34,262.78 -79.31,532.03 -79.31,799.32 0,262.03 37.45,514.3 121.99,746.37 -156.93,49.61 -347.48,87.97 -571.66,115.13 -378.8,57.64 -848.19,86.48 -1408.2,86.48 -1021.11,0 -1947.59,-107.05 -2779.32,-321.18l691.74 -2038.16z"/>
   <path class="fil1" d="M9597.47 11597.67c691.73,189.4 1321.72,284.1 1889.95,284.1 576.48,0 1045.87,-24.71 1408.18,-74.11l98.82 -617.64 -1025.26 -98.82c-782.29,-74.11 -1338.17,-251.16 -1667.59,-531.15 -321.19,-280 -481.76,-675.28 -481.76,-1185.84 0,-222.34 24.7,-469.42 74.11,-741.16 189.43,-1054.09 535.29,-1778.76 1037.62,-2174.07 502.37,-395.27 1272.31,-592.91 2309.93,-592.91 1045.9,0 1968.19,102.94 2766.98,308.8l-642.34 1976.41c-716.46,-123.52 -1292.87,-185.27 -1729.35,-185.27 -428.21,0 -798.79,20.6 -1111.73,61.75l-98.83 605.29 827.61 86.46c839.99,90.58 1437.04,292.34 1791.14,605.28 354.14,304.69 531.16,716.46 531.16,1235.26 0,527.03 -111.19,1070.56 -333.53,1630.54 -123.51,288.24 -255.26,531.15 -395.28,728.8 -131.75,189.42 -304.67,354.07 -518.8,494.09 -205.86,131.75 -395.28,234.69 -568.23,308.81 -172.93,65.9 -395.28,115.32 -667.04,148.23 -378.79,57.64 -848.18,86.49 -1408.19,86.49 -1021.11,0 -1947.57,-107.05 -2779.31,-321.18l691.74 -2038.16z"/>
  </g>
 </g>
</svg>
